<?xml version="1.0" encoding="utf-8" standalone="no"?>
<!DOCTYPE svg PUBLIC "-//W3C//DTD SVG 1.1//EN"
  "http://www.w3.org/Graphics/SVG/1.1/DTD/svg11.dtd">
<svg xmlns:xlink="http://www.w3.org/1999/xlink" width="720pt" height="216pt" viewBox="0 0 720 216" xmlns="http://www.w3.org/2000/svg" version="1.1">
 <metadata>
  <rdf:RDF xmlns:dc="http://purl.org/dc/elements/1.1/" xmlns:cc="http://creativecommons.org/ns#" xmlns:rdf="http://www.w3.org/1999/02/22-rdf-syntax-ns#">
   <cc:Work>
    <dc:type rdf:resource="http://purl.org/dc/dcmitype/StillImage"/>
    <dc:date>2024-10-17T11:25:07.982027</dc:date>
    <dc:format>image/svg+xml</dc:format>
    <dc:creator>
     <cc:Agent>
      <dc:title>Matplotlib v3.7.3, https://matplotlib.org/</dc:title>
     </cc:Agent>
    </dc:creator>
   </cc:Work>
  </rdf:RDF>
 </metadata>
 <defs>
  <style type="text/css">*{stroke-linejoin: round; stroke-linecap: butt}</style>
 </defs>
 <g id="figure_1">
  <g id="patch_1">
   <path d="M 0 216 
L 720 216 
L 720 0 
L 0 0 
z
" style="fill: #ffffff"/>
  </g>
  <g id="axes_1">
   <g id="patch_2">
    <path d="M 90 192.24 
L 343.636364 192.24 
L 343.636364 25.92 
L 90 25.92 
z
" style="fill: #ffffff"/>
   </g>
   <g id="matplotlib.axis_1">
    <g id="xtick_1">
     <g id="line2d_1">
      <path d="M 101.528926 192.24 
L 101.528926 25.92 
" clip-path="url(#p7a9173b8a6)" style="fill: none; stroke: #b0b0b0; stroke-width: 0.8; stroke-linecap: square"/>
     </g>
     <g id="line2d_2">
      <defs>
       <path id="m120c98dab1" d="M 0 0 
L 0 3.5 
" style="stroke: #000000; stroke-width: 0.8"/>
      </defs>
      <g>
       <use xlink:href="#m120c98dab1" x="101.528926" y="192.24" style="stroke: #000000; stroke-width: 0.8"/>
      </g>
     </g>
     <g id="text_1">
      <!-- Layer II/III -->
      <g transform="translate(76.939082 206.838437) scale(0.1 -0.1)">
       <defs>
        <path id="DejaVuSans-4c" d="M 628 4666 
L 1259 4666 
L 1259 531 
L 3531 531 
L 3531 0 
L 628 0 
L 628 4666 
z
" transform="scale(0.015625)"/>
        <path id="DejaVuSans-61" d="M 2194 1759 
Q 1497 1759 1228 1600 
Q 959 1441 959 1056 
Q 959 750 1161 570 
Q 1363 391 1709 391 
Q 2188 391 2477 730 
Q 2766 1069 2766 1631 
L 2766 1759 
L 2194 1759 
z
M 3341 1997 
L 3341 0 
L 2766 0 
L 2766 531 
Q 2569 213 2275 61 
Q 1981 -91 1556 -91 
Q 1019 -91 701 211 
Q 384 513 384 1019 
Q 384 1609 779 1909 
Q 1175 2209 1959 2209 
L 2766 2209 
L 2766 2266 
Q 2766 2663 2505 2880 
Q 2244 3097 1772 3097 
Q 1472 3097 1187 3025 
Q 903 2953 641 2809 
L 641 3341 
Q 956 3463 1253 3523 
Q 1550 3584 1831 3584 
Q 2591 3584 2966 3190 
Q 3341 2797 3341 1997 
z
" transform="scale(0.015625)"/>
        <path id="DejaVuSans-79" d="M 2059 -325 
Q 1816 -950 1584 -1140 
Q 1353 -1331 966 -1331 
L 506 -1331 
L 506 -850 
L 844 -850 
Q 1081 -850 1212 -737 
Q 1344 -625 1503 -206 
L 1606 56 
L 191 3500 
L 800 3500 
L 1894 763 
L 2988 3500 
L 3597 3500 
L 2059 -325 
z
" transform="scale(0.015625)"/>
        <path id="DejaVuSans-65" d="M 3597 1894 
L 3597 1613 
L 953 1613 
Q 991 1019 1311 708 
Q 1631 397 2203 397 
Q 2534 397 2845 478 
Q 3156 559 3463 722 
L 3463 178 
Q 3153 47 2828 -22 
Q 2503 -91 2169 -91 
Q 1331 -91 842 396 
Q 353 884 353 1716 
Q 353 2575 817 3079 
Q 1281 3584 2069 3584 
Q 2775 3584 3186 3129 
Q 3597 2675 3597 1894 
z
M 3022 2063 
Q 3016 2534 2758 2815 
Q 2500 3097 2075 3097 
Q 1594 3097 1305 2825 
Q 1016 2553 972 2059 
L 3022 2063 
z
" transform="scale(0.015625)"/>
        <path id="DejaVuSans-72" d="M 2631 2963 
Q 2534 3019 2420 3045 
Q 2306 3072 2169 3072 
Q 1681 3072 1420 2755 
Q 1159 2438 1159 1844 
L 1159 0 
L 581 0 
L 581 3500 
L 1159 3500 
L 1159 2956 
Q 1341 3275 1631 3429 
Q 1922 3584 2338 3584 
Q 2397 3584 2469 3576 
Q 2541 3569 2628 3553 
L 2631 2963 
z
" transform="scale(0.015625)"/>
        <path id="DejaVuSans-20" transform="scale(0.015625)"/>
        <path id="DejaVuSans-49" d="M 628 4666 
L 1259 4666 
L 1259 0 
L 628 0 
L 628 4666 
z
" transform="scale(0.015625)"/>
        <path id="DejaVuSans-2f" d="M 1625 4666 
L 2156 4666 
L 531 -594 
L 0 -594 
L 1625 4666 
z
" transform="scale(0.015625)"/>
       </defs>
       <use xlink:href="#DejaVuSans-4c"/>
       <use xlink:href="#DejaVuSans-61" x="55.712891"/>
       <use xlink:href="#DejaVuSans-79" x="116.992188"/>
       <use xlink:href="#DejaVuSans-65" x="176.171875"/>
       <use xlink:href="#DejaVuSans-72" x="237.695312"/>
       <use xlink:href="#DejaVuSans-20" x="278.808594"/>
       <use xlink:href="#DejaVuSans-49" x="310.595703"/>
       <use xlink:href="#DejaVuSans-49" x="340.087891"/>
       <use xlink:href="#DejaVuSans-2f" x="369.580078"/>
       <use xlink:href="#DejaVuSans-49" x="403.271484"/>
       <use xlink:href="#DejaVuSans-49" x="432.763672"/>
       <use xlink:href="#DejaVuSans-49" x="462.255859"/>
      </g>
     </g>
    </g>
    <g id="xtick_2">
     <g id="line2d_3">
      <path d="M 216.818182 192.24 
L 216.818182 25.92 
" clip-path="url(#p7a9173b8a6)" style="fill: none; stroke: #b0b0b0; stroke-width: 0.8; stroke-linecap: square"/>
     </g>
     <g id="line2d_4">
      <g>
       <use xlink:href="#m120c98dab1" x="216.818182" y="192.24" style="stroke: #000000; stroke-width: 0.8"/>
      </g>
     </g>
     <g id="text_2">
      <!-- Layer IV -->
      <g transform="translate(196.392401 206.838437) scale(0.1 -0.1)">
       <defs>
        <path id="DejaVuSans-56" d="M 1831 0 
L 50 4666 
L 709 4666 
L 2188 738 
L 3669 4666 
L 4325 4666 
L 2547 0 
L 1831 0 
z
" transform="scale(0.015625)"/>
       </defs>
       <use xlink:href="#DejaVuSans-4c"/>
       <use xlink:href="#DejaVuSans-61" x="55.712891"/>
       <use xlink:href="#DejaVuSans-79" x="116.992188"/>
       <use xlink:href="#DejaVuSans-65" x="176.171875"/>
       <use xlink:href="#DejaVuSans-72" x="237.695312"/>
       <use xlink:href="#DejaVuSans-20" x="278.808594"/>
       <use xlink:href="#DejaVuSans-49" x="310.595703"/>
       <use xlink:href="#DejaVuSans-56" x="340.087891"/>
      </g>
     </g>
    </g>
    <g id="xtick_3">
     <g id="line2d_5">
      <path d="M 332.107438 192.24 
L 332.107438 25.92 
" clip-path="url(#p7a9173b8a6)" style="fill: none; stroke: #b0b0b0; stroke-width: 0.8; stroke-linecap: square"/>
     </g>
     <g id="line2d_6">
      <g>
       <use xlink:href="#m120c98dab1" x="332.107438" y="192.24" style="stroke: #000000; stroke-width: 0.8"/>
      </g>
     </g>
     <g id="text_3">
      <!-- Layer V -->
      <g transform="translate(313.156657 206.838437) scale(0.1 -0.1)">
       <use xlink:href="#DejaVuSans-4c"/>
       <use xlink:href="#DejaVuSans-61" x="55.712891"/>
       <use xlink:href="#DejaVuSans-79" x="116.992188"/>
       <use xlink:href="#DejaVuSans-65" x="176.171875"/>
       <use xlink:href="#DejaVuSans-72" x="237.695312"/>
       <use xlink:href="#DejaVuSans-20" x="278.808594"/>
       <use xlink:href="#DejaVuSans-56" x="310.595703"/>
      </g>
     </g>
    </g>
   </g>
   <g id="matplotlib.axis_2">
    <g id="ytick_1">
     <g id="line2d_7">
      <path d="M 90 191.848122 
L 343.636364 191.848122 
" clip-path="url(#p7a9173b8a6)" style="fill: none; stroke: #b0b0b0; stroke-width: 0.8; stroke-linecap: square"/>
     </g>
     <g id="line2d_8">
      <defs>
       <path id="m6fea19962f" d="M 0 0 
L -3.5 0 
" style="stroke: #000000; stroke-width: 0.8"/>
      </defs>
      <g>
       <use xlink:href="#m6fea19962f" x="90" y="191.848122" style="stroke: #000000; stroke-width: 0.8"/>
      </g>
     </g>
     <g id="text_4">
      <!-- 0.0 -->
      <g transform="translate(67.096875 195.647341) scale(0.1 -0.1)">
       <defs>
        <path id="DejaVuSans-30" d="M 2034 4250 
Q 1547 4250 1301 3770 
Q 1056 3291 1056 2328 
Q 1056 1369 1301 889 
Q 1547 409 2034 409 
Q 2525 409 2770 889 
Q 3016 1369 3016 2328 
Q 3016 3291 2770 3770 
Q 2525 4250 2034 4250 
z
M 2034 4750 
Q 2819 4750 3233 4129 
Q 3647 3509 3647 2328 
Q 3647 1150 3233 529 
Q 2819 -91 2034 -91 
Q 1250 -91 836 529 
Q 422 1150 422 2328 
Q 422 3509 836 4129 
Q 1250 4750 2034 4750 
z
" transform="scale(0.015625)"/>
        <path id="DejaVuSans-2e" d="M 684 794 
L 1344 794 
L 1344 0 
L 684 0 
L 684 794 
z
" transform="scale(0.015625)"/>
       </defs>
       <use xlink:href="#DejaVuSans-30"/>
       <use xlink:href="#DejaVuSans-2e" x="63.623047"/>
       <use xlink:href="#DejaVuSans-30" x="95.410156"/>
      </g>
     </g>
    </g>
    <g id="ytick_2">
     <g id="line2d_9">
      <path d="M 90 160.174498 
L 343.636364 160.174498 
" clip-path="url(#p7a9173b8a6)" style="fill: none; stroke: #b0b0b0; stroke-width: 0.8; stroke-linecap: square"/>
     </g>
     <g id="line2d_10">
      <g>
       <use xlink:href="#m6fea19962f" x="90" y="160.174498" style="stroke: #000000; stroke-width: 0.8"/>
      </g>
     </g>
     <g id="text_5">
      <!-- 0.2 -->
      <g transform="translate(67.096875 163.973716) scale(0.1 -0.1)">
       <defs>
        <path id="DejaVuSans-32" d="M 1228 531 
L 3431 531 
L 3431 0 
L 469 0 
L 469 531 
Q 828 903 1448 1529 
Q 2069 2156 2228 2338 
Q 2531 2678 2651 2914 
Q 2772 3150 2772 3378 
Q 2772 3750 2511 3984 
Q 2250 4219 1831 4219 
Q 1534 4219 1204 4116 
Q 875 4013 500 3803 
L 500 4441 
Q 881 4594 1212 4672 
Q 1544 4750 1819 4750 
Q 2544 4750 2975 4387 
Q 3406 4025 3406 3419 
Q 3406 3131 3298 2873 
Q 3191 2616 2906 2266 
Q 2828 2175 2409 1742 
Q 1991 1309 1228 531 
z
" transform="scale(0.015625)"/>
       </defs>
       <use xlink:href="#DejaVuSans-30"/>
       <use xlink:href="#DejaVuSans-2e" x="63.623047"/>
       <use xlink:href="#DejaVuSans-32" x="95.410156"/>
      </g>
     </g>
    </g>
    <g id="ytick_3">
     <g id="line2d_11">
      <path d="M 90 128.500873 
L 343.636364 128.500873 
" clip-path="url(#p7a9173b8a6)" style="fill: none; stroke: #b0b0b0; stroke-width: 0.8; stroke-linecap: square"/>
     </g>
     <g id="line2d_12">
      <g>
       <use xlink:href="#m6fea19962f" x="90" y="128.500873" style="stroke: #000000; stroke-width: 0.8"/>
      </g>
     </g>
     <g id="text_6">
      <!-- 0.4 -->
      <g transform="translate(67.096875 132.300092) scale(0.1 -0.1)">
       <defs>
        <path id="DejaVuSans-34" d="M 2419 4116 
L 825 1625 
L 2419 1625 
L 2419 4116 
z
M 2253 4666 
L 3047 4666 
L 3047 1625 
L 3713 1625 
L 3713 1100 
L 3047 1100 
L 3047 0 
L 2419 0 
L 2419 1100 
L 313 1100 
L 313 1709 
L 2253 4666 
z
" transform="scale(0.015625)"/>
       </defs>
       <use xlink:href="#DejaVuSans-30"/>
       <use xlink:href="#DejaVuSans-2e" x="63.623047"/>
       <use xlink:href="#DejaVuSans-34" x="95.410156"/>
      </g>
     </g>
    </g>
    <g id="ytick_4">
     <g id="line2d_13">
      <path d="M 90 96.827249 
L 343.636364 96.827249 
" clip-path="url(#p7a9173b8a6)" style="fill: none; stroke: #b0b0b0; stroke-width: 0.8; stroke-linecap: square"/>
     </g>
     <g id="line2d_14">
      <g>
       <use xlink:href="#m6fea19962f" x="90" y="96.827249" style="stroke: #000000; stroke-width: 0.8"/>
      </g>
     </g>
     <g id="text_7">
      <!-- 0.6 -->
      <g transform="translate(67.096875 100.626468) scale(0.1 -0.1)">
       <defs>
        <path id="DejaVuSans-36" d="M 2113 2584 
Q 1688 2584 1439 2293 
Q 1191 2003 1191 1497 
Q 1191 994 1439 701 
Q 1688 409 2113 409 
Q 2538 409 2786 701 
Q 3034 994 3034 1497 
Q 3034 2003 2786 2293 
Q 2538 2584 2113 2584 
z
M 3366 4563 
L 3366 3988 
Q 3128 4100 2886 4159 
Q 2644 4219 2406 4219 
Q 1781 4219 1451 3797 
Q 1122 3375 1075 2522 
Q 1259 2794 1537 2939 
Q 1816 3084 2150 3084 
Q 2853 3084 3261 2657 
Q 3669 2231 3669 1497 
Q 3669 778 3244 343 
Q 2819 -91 2113 -91 
Q 1303 -91 875 529 
Q 447 1150 447 2328 
Q 447 3434 972 4092 
Q 1497 4750 2381 4750 
Q 2619 4750 2861 4703 
Q 3103 4656 3366 4563 
z
" transform="scale(0.015625)"/>
       </defs>
       <use xlink:href="#DejaVuSans-30"/>
       <use xlink:href="#DejaVuSans-2e" x="63.623047"/>
       <use xlink:href="#DejaVuSans-36" x="95.410156"/>
      </g>
     </g>
    </g>
    <g id="ytick_5">
     <g id="line2d_15">
      <path d="M 90 65.153624 
L 343.636364 65.153624 
" clip-path="url(#p7a9173b8a6)" style="fill: none; stroke: #b0b0b0; stroke-width: 0.8; stroke-linecap: square"/>
     </g>
     <g id="line2d_16">
      <g>
       <use xlink:href="#m6fea19962f" x="90" y="65.153624" style="stroke: #000000; stroke-width: 0.8"/>
      </g>
     </g>
     <g id="text_8">
      <!-- 0.8 -->
      <g transform="translate(67.096875 68.952843) scale(0.1 -0.1)">
       <defs>
        <path id="DejaVuSans-38" d="M 2034 2216 
Q 1584 2216 1326 1975 
Q 1069 1734 1069 1313 
Q 1069 891 1326 650 
Q 1584 409 2034 409 
Q 2484 409 2743 651 
Q 3003 894 3003 1313 
Q 3003 1734 2745 1975 
Q 2488 2216 2034 2216 
z
M 1403 2484 
Q 997 2584 770 2862 
Q 544 3141 544 3541 
Q 544 4100 942 4425 
Q 1341 4750 2034 4750 
Q 2731 4750 3128 4425 
Q 3525 4100 3525 3541 
Q 3525 3141 3298 2862 
Q 3072 2584 2669 2484 
Q 3125 2378 3379 2068 
Q 3634 1759 3634 1313 
Q 3634 634 3220 271 
Q 2806 -91 2034 -91 
Q 1263 -91 848 271 
Q 434 634 434 1313 
Q 434 1759 690 2068 
Q 947 2378 1403 2484 
z
M 1172 3481 
Q 1172 3119 1398 2916 
Q 1625 2713 2034 2713 
Q 2441 2713 2670 2916 
Q 2900 3119 2900 3481 
Q 2900 3844 2670 4047 
Q 2441 4250 2034 4250 
Q 1625 4250 1398 4047 
Q 1172 3844 1172 3481 
z
" transform="scale(0.015625)"/>
       </defs>
       <use xlink:href="#DejaVuSans-30"/>
       <use xlink:href="#DejaVuSans-2e" x="63.623047"/>
       <use xlink:href="#DejaVuSans-38" x="95.410156"/>
      </g>
     </g>
    </g>
    <g id="ytick_6">
     <g id="line2d_17">
      <path d="M 90 33.48 
L 343.636364 33.48 
" clip-path="url(#p7a9173b8a6)" style="fill: none; stroke: #b0b0b0; stroke-width: 0.8; stroke-linecap: square"/>
     </g>
     <g id="line2d_18">
      <g>
       <use xlink:href="#m6fea19962f" x="90" y="33.48" style="stroke: #000000; stroke-width: 0.8"/>
      </g>
     </g>
     <g id="text_9">
      <!-- 1.0 -->
      <g transform="translate(67.096875 37.279219) scale(0.1 -0.1)">
       <defs>
        <path id="DejaVuSans-31" d="M 794 531 
L 1825 531 
L 1825 4091 
L 703 3866 
L 703 4441 
L 1819 4666 
L 2450 4666 
L 2450 531 
L 3481 531 
L 3481 0 
L 794 0 
L 794 531 
z
" transform="scale(0.015625)"/>
       </defs>
       <use xlink:href="#DejaVuSans-31"/>
       <use xlink:href="#DejaVuSans-2e" x="63.623047"/>
       <use xlink:href="#DejaVuSans-30" x="95.410156"/>
      </g>
     </g>
    </g>
   </g>
   <g id="line2d_19">
    <path d="M 101.528926 127.905888 
L 216.818182 165.172029 
L 332.107438 33.48 
" clip-path="url(#p7a9173b8a6)" style="fill: none; stroke: #ff0000; stroke-opacity: 0.3; stroke-linecap: square"/>
   </g>
   <g id="line2d_20">
    <path d="M 101.528926 152.641745 
L 216.818182 173.626028 
L 332.107438 33.48 
" clip-path="url(#p7a9173b8a6)" style="fill: none; stroke: #ff0000; stroke-opacity: 0.3; stroke-linecap: square"/>
   </g>
   <g id="line2d_21">
    <path d="M 101.528926 94.245513 
L 216.818182 138.489769 
L 332.107438 33.48 
" clip-path="url(#p7a9173b8a6)" style="fill: none; stroke: #ff0000; stroke-opacity: 0.3; stroke-linecap: square"/>
   </g>
   <g id="line2d_22">
    <path d="M 101.528926 140.479703 
L 216.818182 176.483725 
L 332.107438 33.48 
" clip-path="url(#p7a9173b8a6)" style="fill: none; stroke: #ff0000; stroke-opacity: 0.3; stroke-linecap: square"/>
   </g>
   <g id="line2d_23">
    <path d="M 101.528926 33.48 
L 216.818182 184.207874 
L 332.107438 70.003974 
" clip-path="url(#p7a9173b8a6)" style="fill: none; stroke: #ff0000; stroke-opacity: 0.3; stroke-linecap: square"/>
   </g>
   <g id="line2d_24">
    <path d="M 101.528926 171.629772 
L 216.818182 184.68 
L 332.107438 33.48 
" clip-path="url(#p7a9173b8a6)" style="fill: none; stroke: #ff0000; stroke-opacity: 0.3; stroke-linecap: square"/>
   </g>
   <g id="line2d_25">
    <path d="M 101.528926 104.820147 
L 216.818182 175.292156 
L 332.107438 33.48 
" clip-path="url(#p7a9173b8a6)" style="fill: none; stroke: #ff0000; stroke-opacity: 0.3; stroke-linecap: square"/>
   </g>
   <g id="line2d_26">
    <path d="M 101.528926 125.776029 
L 216.818182 183.431361 
L 332.107438 33.48 
" clip-path="url(#p7a9173b8a6)" style="fill: none; stroke: #ff0000; stroke-opacity: 0.3; stroke-linecap: square"/>
   </g>
   <g id="line2d_27">
    <path d="M 101.528926 34.968039 
L 216.818182 151.241869 
L 332.107438 33.48 
" clip-path="url(#p7a9173b8a6)" style="fill: none; stroke: #ff0000; stroke-opacity: 0.3; stroke-linecap: square"/>
   </g>
   <g id="line2d_28">
    <path d="M 101.528926 76.562008 
L 216.818182 130.283654 
L 332.107438 33.48 
" clip-path="url(#p7a9173b8a6)" style="fill: none; stroke: #ff0000; stroke-opacity: 0.3; stroke-linecap: square"/>
   </g>
   <g id="line2d_29">
    <path d="M 101.528926 129.153358 
L 216.818182 179.92169 
L 332.107438 33.48 
" clip-path="url(#p7a9173b8a6)" style="fill: none; stroke: #ff0000; stroke-opacity: 0.3; stroke-linecap: square"/>
   </g>
   <g id="line2d_30">
    <path d="M 101.528926 130.457859 
L 216.818182 142.27421 
L 332.107438 33.48 
" clip-path="url(#p7a9173b8a6)" style="fill: none; stroke: #0000ff; stroke-opacity: 0.3; stroke-linecap: square"/>
   </g>
   <g id="line2d_31">
    <path d="M 101.528926 49.887302 
L 216.818182 170.713859 
L 332.107438 33.48 
" clip-path="url(#p7a9173b8a6)" style="fill: none; stroke: #0000ff; stroke-opacity: 0.3; stroke-linecap: square"/>
   </g>
   <g id="line2d_32">
    <path d="M 101.528926 60.959536 
L 216.818182 169.628305 
L 332.107438 33.48 
" clip-path="url(#p7a9173b8a6)" style="fill: none; stroke: #0000ff; stroke-opacity: 0.3; stroke-linecap: square"/>
   </g>
   <g id="line2d_33">
    <path d="M 101.528926 51.937607 
L 216.818182 162.525889 
L 332.107438 33.48 
" clip-path="url(#p7a9173b8a6)" style="fill: none; stroke: #0000ff; stroke-opacity: 0.3; stroke-linecap: square"/>
   </g>
   <g id="line2d_34">
    <path d="M 101.528926 118.891822 
L 216.818182 170.637391 
L 332.107438 33.48 
" clip-path="url(#p7a9173b8a6)" style="fill: none; stroke: #0000ff; stroke-opacity: 0.3; stroke-linecap: square"/>
   </g>
   <g id="line2d_35">
    <path d="M 101.528926 37.241777 
L 216.818182 163.344362 
L 332.107438 33.48 
" clip-path="url(#p7a9173b8a6)" style="fill: none; stroke: #0000ff; stroke-opacity: 0.3; stroke-linecap: square"/>
   </g>
   <g id="line2d_36">
    <path d="M 101.528926 33.48 
L 216.818182 170.80287 
L 332.107438 84.753305 
" clip-path="url(#p7a9173b8a6)" style="fill: none; stroke: #0000ff; stroke-opacity: 0.3; stroke-linecap: square"/>
   </g>
   <g id="line2d_37">
    <path d="M 101.528926 102.834764 
L 216.818182 172.235615 
L 332.107438 33.48 
" clip-path="url(#p7a9173b8a6)" style="fill: none; stroke: #0000ff; stroke-opacity: 0.3; stroke-linecap: square"/>
   </g>
   <g id="line2d_38">
    <path d="M 101.528926 114.082838 
L 216.818182 170.049227 
L 332.107438 33.48 
" clip-path="url(#p7a9173b8a6)" style="fill: none; stroke: #0000ff; stroke-opacity: 0.3; stroke-linecap: square"/>
   </g>
   <g id="line2d_39">
    <path d="M 101.528926 90.511809 
L 216.818182 171.985265 
L 332.107438 33.48 
" clip-path="url(#p7a9173b8a6)" style="fill: none; stroke: #0000ff; stroke-opacity: 0.3; stroke-linecap: square"/>
   </g>
   <g id="line2d_40">
    <path d="M 101.528926 58.374733 
L 216.818182 166.112358 
L 332.107438 33.48 
" clip-path="url(#p7a9173b8a6)" style="fill: none; stroke: #0000ff; stroke-opacity: 0.3; stroke-linecap: square"/>
   </g>
   <g id="line2d_41">
    <path d="M 101.528926 108.332927 
L 216.818182 167.530014 
L 332.107438 36.800361 
" clip-path="url(#p7a9173b8a6)" style="fill: none; stroke: #ff0000; stroke-opacity: 0.5; stroke-width: 5; stroke-linecap: square"/>
   </g>
   <g id="line2d_42">
    <path d="M 101.528926 77.150913 
L 216.818182 166.391759 
L 332.107438 38.14121 
" clip-path="url(#p7a9173b8a6)" style="fill: none; stroke: #0000ff; stroke-opacity: 0.5; stroke-width: 5; stroke-linecap: square"/>
   </g>
   <g id="patch_3">
    <path d="M 90 192.24 
L 90 25.92 
" style="fill: none; stroke: #000000; stroke-width: 0.8; stroke-linejoin: miter; stroke-linecap: square"/>
   </g>
   <g id="patch_4">
    <path d="M 343.636364 192.24 
L 343.636364 25.92 
" style="fill: none; stroke: #000000; stroke-width: 0.8; stroke-linejoin: miter; stroke-linecap: square"/>
   </g>
   <g id="patch_5">
    <path d="M 90 192.24 
L 343.636364 192.24 
" style="fill: none; stroke: #000000; stroke-width: 0.8; stroke-linejoin: miter; stroke-linecap: square"/>
   </g>
   <g id="patch_6">
    <path d="M 90 25.92 
L 343.636364 25.92 
" style="fill: none; stroke: #000000; stroke-width: 0.8; stroke-linejoin: miter; stroke-linecap: square"/>
   </g>
   <g id="legend_1">
    <g id="patch_7">
     <path d="M 233.119176 187.24 
L 336.636364 187.24 
Q 338.636364 187.24 338.636364 185.24 
L 338.636364 156.88375 
Q 338.636364 154.88375 336.636364 154.88375 
L 233.119176 154.88375 
Q 231.119176 154.88375 231.119176 156.88375 
L 231.119176 185.24 
Q 231.119176 187.24 233.119176 187.24 
z
" style="fill: #ffffff; opacity: 0.8; stroke: #cccccc; stroke-linejoin: miter"/>
    </g>
    <g id="line2d_43">
     <path d="M 235.119176 162.982188 
L 245.119176 162.982188 
L 255.119176 162.982188 
" style="fill: none; stroke: #ff0000; stroke-opacity: 0.5; stroke-width: 5; stroke-linecap: square"/>
    </g>
    <g id="text_10">
     <!-- Group 1 mean -->
     <g transform="translate(263.119176 166.482188) scale(0.1 -0.1)">
      <defs>
       <path id="DejaVuSans-47" d="M 3809 666 
L 3809 1919 
L 2778 1919 
L 2778 2438 
L 4434 2438 
L 4434 434 
Q 4069 175 3628 42 
Q 3188 -91 2688 -91 
Q 1594 -91 976 548 
Q 359 1188 359 2328 
Q 359 3472 976 4111 
Q 1594 4750 2688 4750 
Q 3144 4750 3555 4637 
Q 3966 4525 4313 4306 
L 4313 3634 
Q 3963 3931 3569 4081 
Q 3175 4231 2741 4231 
Q 1884 4231 1454 3753 
Q 1025 3275 1025 2328 
Q 1025 1384 1454 906 
Q 1884 428 2741 428 
Q 3075 428 3337 486 
Q 3600 544 3809 666 
z
" transform="scale(0.015625)"/>
       <path id="DejaVuSans-6f" d="M 1959 3097 
Q 1497 3097 1228 2736 
Q 959 2375 959 1747 
Q 959 1119 1226 758 
Q 1494 397 1959 397 
Q 2419 397 2687 759 
Q 2956 1122 2956 1747 
Q 2956 2369 2687 2733 
Q 2419 3097 1959 3097 
z
M 1959 3584 
Q 2709 3584 3137 3096 
Q 3566 2609 3566 1747 
Q 3566 888 3137 398 
Q 2709 -91 1959 -91 
Q 1206 -91 779 398 
Q 353 888 353 1747 
Q 353 2609 779 3096 
Q 1206 3584 1959 3584 
z
" transform="scale(0.015625)"/>
       <path id="DejaVuSans-75" d="M 544 1381 
L 544 3500 
L 1119 3500 
L 1119 1403 
Q 1119 906 1312 657 
Q 1506 409 1894 409 
Q 2359 409 2629 706 
Q 2900 1003 2900 1516 
L 2900 3500 
L 3475 3500 
L 3475 0 
L 2900 0 
L 2900 538 
Q 2691 219 2414 64 
Q 2138 -91 1772 -91 
Q 1169 -91 856 284 
Q 544 659 544 1381 
z
M 1991 3584 
L 1991 3584 
z
" transform="scale(0.015625)"/>
       <path id="DejaVuSans-70" d="M 1159 525 
L 1159 -1331 
L 581 -1331 
L 581 3500 
L 1159 3500 
L 1159 2969 
Q 1341 3281 1617 3432 
Q 1894 3584 2278 3584 
Q 2916 3584 3314 3078 
Q 3713 2572 3713 1747 
Q 3713 922 3314 415 
Q 2916 -91 2278 -91 
Q 1894 -91 1617 61 
Q 1341 213 1159 525 
z
M 3116 1747 
Q 3116 2381 2855 2742 
Q 2594 3103 2138 3103 
Q 1681 3103 1420 2742 
Q 1159 2381 1159 1747 
Q 1159 1113 1420 752 
Q 1681 391 2138 391 
Q 2594 391 2855 752 
Q 3116 1113 3116 1747 
z
" transform="scale(0.015625)"/>
       <path id="DejaVuSans-6d" d="M 3328 2828 
Q 3544 3216 3844 3400 
Q 4144 3584 4550 3584 
Q 5097 3584 5394 3201 
Q 5691 2819 5691 2113 
L 5691 0 
L 5113 0 
L 5113 2094 
Q 5113 2597 4934 2840 
Q 4756 3084 4391 3084 
Q 3944 3084 3684 2787 
Q 3425 2491 3425 1978 
L 3425 0 
L 2847 0 
L 2847 2094 
Q 2847 2600 2669 2842 
Q 2491 3084 2119 3084 
Q 1678 3084 1418 2786 
Q 1159 2488 1159 1978 
L 1159 0 
L 581 0 
L 581 3500 
L 1159 3500 
L 1159 2956 
Q 1356 3278 1631 3431 
Q 1906 3584 2284 3584 
Q 2666 3584 2933 3390 
Q 3200 3197 3328 2828 
z
" transform="scale(0.015625)"/>
       <path id="DejaVuSans-6e" d="M 3513 2113 
L 3513 0 
L 2938 0 
L 2938 2094 
Q 2938 2591 2744 2837 
Q 2550 3084 2163 3084 
Q 1697 3084 1428 2787 
Q 1159 2491 1159 1978 
L 1159 0 
L 581 0 
L 581 3500 
L 1159 3500 
L 1159 2956 
Q 1366 3272 1645 3428 
Q 1925 3584 2291 3584 
Q 2894 3584 3203 3211 
Q 3513 2838 3513 2113 
z
" transform="scale(0.015625)"/>
      </defs>
      <use xlink:href="#DejaVuSans-47"/>
      <use xlink:href="#DejaVuSans-72" x="77.490234"/>
      <use xlink:href="#DejaVuSans-6f" x="116.353516"/>
      <use xlink:href="#DejaVuSans-75" x="177.535156"/>
      <use xlink:href="#DejaVuSans-70" x="240.914062"/>
      <use xlink:href="#DejaVuSans-20" x="304.390625"/>
      <use xlink:href="#DejaVuSans-31" x="336.177734"/>
      <use xlink:href="#DejaVuSans-20" x="399.800781"/>
      <use xlink:href="#DejaVuSans-6d" x="431.587891"/>
      <use xlink:href="#DejaVuSans-65" x="529"/>
      <use xlink:href="#DejaVuSans-61" x="590.523438"/>
      <use xlink:href="#DejaVuSans-6e" x="651.802734"/>
     </g>
    </g>
    <g id="line2d_44">
     <path d="M 235.119176 177.660313 
L 245.119176 177.660313 
L 255.119176 177.660313 
" style="fill: none; stroke: #0000ff; stroke-opacity: 0.5; stroke-width: 5; stroke-linecap: square"/>
    </g>
    <g id="text_11">
     <!-- Group 2 mean -->
     <g transform="translate(263.119176 181.160313) scale(0.1 -0.1)">
      <use xlink:href="#DejaVuSans-47"/>
      <use xlink:href="#DejaVuSans-72" x="77.490234"/>
      <use xlink:href="#DejaVuSans-6f" x="116.353516"/>
      <use xlink:href="#DejaVuSans-75" x="177.535156"/>
      <use xlink:href="#DejaVuSans-70" x="240.914062"/>
      <use xlink:href="#DejaVuSans-20" x="304.390625"/>
      <use xlink:href="#DejaVuSans-32" x="336.177734"/>
      <use xlink:href="#DejaVuSans-20" x="399.800781"/>
      <use xlink:href="#DejaVuSans-6d" x="431.587891"/>
      <use xlink:href="#DejaVuSans-65" x="529"/>
      <use xlink:href="#DejaVuSans-61" x="590.523438"/>
      <use xlink:href="#DejaVuSans-6e" x="651.802734"/>
     </g>
    </g>
   </g>
  </g>
  <g id="axes_2">
   <g id="patch_8">
    <path d="M 394.363636 192.24 
L 648 192.24 
L 648 25.92 
L 394.363636 25.92 
z
" style="fill: #ffffff"/>
   </g>
   <g id="matplotlib.axis_3">
    <g id="xtick_4">
     <g id="line2d_45">
      <path d="M 405.892562 192.24 
L 405.892562 25.92 
" clip-path="url(#p5bdf44fe13)" style="fill: none; stroke: #b0b0b0; stroke-width: 0.8; stroke-linecap: square"/>
     </g>
     <g id="line2d_46">
      <g>
       <use xlink:href="#m120c98dab1" x="405.892562" y="192.24" style="stroke: #000000; stroke-width: 0.8"/>
      </g>
     </g>
     <g id="text_12">
      <!-- Layer II/III -->
      <g transform="translate(381.302718 206.838437) scale(0.1 -0.1)">
       <use xlink:href="#DejaVuSans-4c"/>
       <use xlink:href="#DejaVuSans-61" x="55.712891"/>
       <use xlink:href="#DejaVuSans-79" x="116.992188"/>
       <use xlink:href="#DejaVuSans-65" x="176.171875"/>
       <use xlink:href="#DejaVuSans-72" x="237.695312"/>
       <use xlink:href="#DejaVuSans-20" x="278.808594"/>
       <use xlink:href="#DejaVuSans-49" x="310.595703"/>
       <use xlink:href="#DejaVuSans-49" x="340.087891"/>
       <use xlink:href="#DejaVuSans-2f" x="369.580078"/>
       <use xlink:href="#DejaVuSans-49" x="403.271484"/>
       <use xlink:href="#DejaVuSans-49" x="432.763672"/>
       <use xlink:href="#DejaVuSans-49" x="462.255859"/>
      </g>
     </g>
    </g>
    <g id="xtick_5">
     <g id="line2d_47">
      <path d="M 521.181818 192.24 
L 521.181818 25.92 
" clip-path="url(#p5bdf44fe13)" style="fill: none; stroke: #b0b0b0; stroke-width: 0.8; stroke-linecap: square"/>
     </g>
     <g id="line2d_48">
      <g>
       <use xlink:href="#m120c98dab1" x="521.181818" y="192.24" style="stroke: #000000; stroke-width: 0.8"/>
      </g>
     </g>
     <g id="text_13">
      <!-- Layer IV -->
      <g transform="translate(500.756037 206.838437) scale(0.1 -0.1)">
       <use xlink:href="#DejaVuSans-4c"/>
       <use xlink:href="#DejaVuSans-61" x="55.712891"/>
       <use xlink:href="#DejaVuSans-79" x="116.992188"/>
       <use xlink:href="#DejaVuSans-65" x="176.171875"/>
       <use xlink:href="#DejaVuSans-72" x="237.695312"/>
       <use xlink:href="#DejaVuSans-20" x="278.808594"/>
       <use xlink:href="#DejaVuSans-49" x="310.595703"/>
       <use xlink:href="#DejaVuSans-56" x="340.087891"/>
      </g>
     </g>
    </g>
    <g id="xtick_6">
     <g id="line2d_49">
      <path d="M 636.471074 192.24 
L 636.471074 25.92 
" clip-path="url(#p5bdf44fe13)" style="fill: none; stroke: #b0b0b0; stroke-width: 0.8; stroke-linecap: square"/>
     </g>
     <g id="line2d_50">
      <g>
       <use xlink:href="#m120c98dab1" x="636.471074" y="192.24" style="stroke: #000000; stroke-width: 0.8"/>
      </g>
     </g>
     <g id="text_14">
      <!-- Layer V -->
      <g transform="translate(617.520293 206.838437) scale(0.1 -0.1)">
       <use xlink:href="#DejaVuSans-4c"/>
       <use xlink:href="#DejaVuSans-61" x="55.712891"/>
       <use xlink:href="#DejaVuSans-79" x="116.992188"/>
       <use xlink:href="#DejaVuSans-65" x="176.171875"/>
       <use xlink:href="#DejaVuSans-72" x="237.695312"/>
       <use xlink:href="#DejaVuSans-20" x="278.808594"/>
       <use xlink:href="#DejaVuSans-56" x="310.595703"/>
      </g>
     </g>
    </g>
   </g>
   <g id="matplotlib.axis_4">
    <g id="ytick_7">
     <g id="line2d_51">
      <path d="M 394.363636 189.746761 
L 648 189.746761 
" clip-path="url(#p5bdf44fe13)" style="fill: none; stroke: #b0b0b0; stroke-width: 0.8; stroke-linecap: square"/>
     </g>
     <g id="line2d_52">
      <g>
       <use xlink:href="#m6fea19962f" x="394.363636" y="189.746761" style="stroke: #000000; stroke-width: 0.8"/>
      </g>
     </g>
     <g id="text_15">
      <!-- 0.2 -->
      <g transform="translate(371.460511 193.54598) scale(0.1 -0.1)">
       <use xlink:href="#DejaVuSans-30"/>
       <use xlink:href="#DejaVuSans-2e" x="63.623047"/>
       <use xlink:href="#DejaVuSans-32" x="95.410156"/>
      </g>
     </g>
    </g>
    <g id="ytick_8">
     <g id="line2d_53">
      <path d="M 394.363636 150.680071 
L 648 150.680071 
" clip-path="url(#p5bdf44fe13)" style="fill: none; stroke: #b0b0b0; stroke-width: 0.8; stroke-linecap: square"/>
     </g>
     <g id="line2d_54">
      <g>
       <use xlink:href="#m6fea19962f" x="394.363636" y="150.680071" style="stroke: #000000; stroke-width: 0.8"/>
      </g>
     </g>
     <g id="text_16">
      <!-- 0.4 -->
      <g transform="translate(371.460511 154.47929) scale(0.1 -0.1)">
       <use xlink:href="#DejaVuSans-30"/>
       <use xlink:href="#DejaVuSans-2e" x="63.623047"/>
       <use xlink:href="#DejaVuSans-34" x="95.410156"/>
      </g>
     </g>
    </g>
    <g id="ytick_9">
     <g id="line2d_55">
      <path d="M 394.363636 111.613381 
L 648 111.613381 
" clip-path="url(#p5bdf44fe13)" style="fill: none; stroke: #b0b0b0; stroke-width: 0.8; stroke-linecap: square"/>
     </g>
     <g id="line2d_56">
      <g>
       <use xlink:href="#m6fea19962f" x="394.363636" y="111.613381" style="stroke: #000000; stroke-width: 0.8"/>
      </g>
     </g>
     <g id="text_17">
      <!-- 0.6 -->
      <g transform="translate(371.460511 115.412599) scale(0.1 -0.1)">
       <use xlink:href="#DejaVuSans-30"/>
       <use xlink:href="#DejaVuSans-2e" x="63.623047"/>
       <use xlink:href="#DejaVuSans-36" x="95.410156"/>
      </g>
     </g>
    </g>
    <g id="ytick_10">
     <g id="line2d_57">
      <path d="M 394.363636 72.54669 
L 648 72.54669 
" clip-path="url(#p5bdf44fe13)" style="fill: none; stroke: #b0b0b0; stroke-width: 0.8; stroke-linecap: square"/>
     </g>
     <g id="line2d_58">
      <g>
       <use xlink:href="#m6fea19962f" x="394.363636" y="72.54669" style="stroke: #000000; stroke-width: 0.8"/>
      </g>
     </g>
     <g id="text_18">
      <!-- 0.8 -->
      <g transform="translate(371.460511 76.345909) scale(0.1 -0.1)">
       <use xlink:href="#DejaVuSans-30"/>
       <use xlink:href="#DejaVuSans-2e" x="63.623047"/>
       <use xlink:href="#DejaVuSans-38" x="95.410156"/>
      </g>
     </g>
    </g>
    <g id="ytick_11">
     <g id="line2d_59">
      <path d="M 394.363636 33.48 
L 648 33.48 
" clip-path="url(#p5bdf44fe13)" style="fill: none; stroke: #b0b0b0; stroke-width: 0.8; stroke-linecap: square"/>
     </g>
     <g id="line2d_60">
      <g>
       <use xlink:href="#m6fea19962f" x="394.363636" y="33.48" style="stroke: #000000; stroke-width: 0.8"/>
      </g>
     </g>
     <g id="text_19">
      <!-- 1.0 -->
      <g transform="translate(371.460511 37.279219) scale(0.1 -0.1)">
       <use xlink:href="#DejaVuSans-31"/>
       <use xlink:href="#DejaVuSans-2e" x="63.623047"/>
       <use xlink:href="#DejaVuSans-30" x="95.410156"/>
      </g>
     </g>
    </g>
   </g>
   <g id="line2d_61">
    <path d="M 405.892562 48.207709 
L 521.181818 133.004049 
L 636.471074 33.48 
" clip-path="url(#p5bdf44fe13)" style="fill: none; stroke: #ff0000; stroke-opacity: 0.3; stroke-linecap: square"/>
   </g>
   <g id="line2d_62">
    <path d="M 405.892562 127.196021 
L 521.181818 146.547648 
L 636.471074 33.48 
" clip-path="url(#p5bdf44fe13)" style="fill: none; stroke: #ff0000; stroke-opacity: 0.3; stroke-linecap: square"/>
   </g>
   <g id="line2d_63">
    <path d="M 405.892562 60.70294 
L 521.181818 73.351367 
L 636.471074 33.48 
" clip-path="url(#p5bdf44fe13)" style="fill: none; stroke: #ff0000; stroke-opacity: 0.3; stroke-linecap: square"/>
   </g>
   <g id="line2d_64">
    <path d="M 405.892562 74.364631 
L 521.181818 131.358234 
L 636.471074 33.48 
" clip-path="url(#p5bdf44fe13)" style="fill: none; stroke: #ff0000; stroke-opacity: 0.3; stroke-linecap: square"/>
   </g>
   <g id="line2d_65">
    <path d="M 405.892562 88.434304 
L 521.181818 176.215338 
L 636.471074 33.48 
" clip-path="url(#p5bdf44fe13)" style="fill: none; stroke: #ff0000; stroke-opacity: 0.3; stroke-linecap: square"/>
   </g>
   <g id="line2d_66">
    <path d="M 405.892562 172.022658 
L 521.181818 184.68 
L 636.471074 33.48 
" clip-path="url(#p5bdf44fe13)" style="fill: none; stroke: #ff0000; stroke-opacity: 0.3; stroke-linecap: square"/>
   </g>
   <g id="line2d_67">
    <path d="M 405.892562 69.750975 
L 521.181818 165.073488 
L 636.471074 33.48 
" clip-path="url(#p5bdf44fe13)" style="fill: none; stroke: #ff0000; stroke-opacity: 0.3; stroke-linecap: square"/>
   </g>
   <g id="line2d_68">
    <path d="M 405.892562 77.621369 
L 521.181818 173.218028 
L 636.471074 33.48 
" clip-path="url(#p5bdf44fe13)" style="fill: none; stroke: #ff0000; stroke-opacity: 0.3; stroke-linecap: square"/>
   </g>
   <g id="line2d_69">
    <path d="M 405.892562 51.88424 
L 521.181818 100.931752 
L 636.471074 33.48 
" clip-path="url(#p5bdf44fe13)" style="fill: none; stroke: #ff0000; stroke-opacity: 0.3; stroke-linecap: square"/>
   </g>
   <g id="line2d_70">
    <path d="M 405.892562 33.48 
L 521.181818 127.951936 
L 636.471074 88.030216 
" clip-path="url(#p5bdf44fe13)" style="fill: none; stroke: #ff0000; stroke-opacity: 0.3; stroke-linecap: square"/>
   </g>
   <g id="line2d_71">
    <path d="M 405.892562 111.46685 
L 521.181818 141.539477 
L 636.471074 33.48 
" clip-path="url(#p5bdf44fe13)" style="fill: none; stroke: #ff0000; stroke-opacity: 0.3; stroke-linecap: square"/>
   </g>
   <g id="line2d_72">
    <path d="M 405.892562 91.129187 
L 521.181818 120.799019 
L 636.471074 33.48 
" clip-path="url(#p5bdf44fe13)" style="fill: none; stroke: #0000ff; stroke-opacity: 0.3; stroke-linecap: square"/>
   </g>
   <g id="line2d_73">
    <path d="M 405.892562 33.48 
L 521.181818 150.636549 
L 636.471074 34.448654 
" clip-path="url(#p5bdf44fe13)" style="fill: none; stroke: #0000ff; stroke-opacity: 0.3; stroke-linecap: square"/>
   </g>
   <g id="line2d_74">
    <path d="M 405.892562 71.016499 
L 521.181818 115.801783 
L 636.471074 33.48 
" clip-path="url(#p5bdf44fe13)" style="fill: none; stroke: #0000ff; stroke-opacity: 0.3; stroke-linecap: square"/>
   </g>
   <g id="line2d_75">
    <path d="M 405.892562 33.48 
L 521.181818 124.42715 
L 636.471074 67.068526 
" clip-path="url(#p5bdf44fe13)" style="fill: none; stroke: #0000ff; stroke-opacity: 0.3; stroke-linecap: square"/>
   </g>
   <g id="line2d_76">
    <path d="M 405.892562 62.23138 
L 521.181818 141.950354 
L 636.471074 33.48 
" clip-path="url(#p5bdf44fe13)" style="fill: none; stroke: #0000ff; stroke-opacity: 0.3; stroke-linecap: square"/>
   </g>
   <g id="line2d_77">
    <path d="M 405.892562 33.48 
L 521.181818 127.979667 
L 636.471074 57.823149 
" clip-path="url(#p5bdf44fe13)" style="fill: none; stroke: #0000ff; stroke-opacity: 0.3; stroke-linecap: square"/>
   </g>
   <g id="line2d_78">
    <path d="M 405.892562 33.48 
L 521.181818 134.305461 
L 636.471074 82.290413 
" clip-path="url(#p5bdf44fe13)" style="fill: none; stroke: #0000ff; stroke-opacity: 0.3; stroke-linecap: square"/>
   </g>
   <g id="line2d_79">
    <path d="M 405.892562 57.142595 
L 521.181818 147.629289 
L 636.471074 33.48 
" clip-path="url(#p5bdf44fe13)" style="fill: none; stroke: #0000ff; stroke-opacity: 0.3; stroke-linecap: square"/>
   </g>
   <g id="line2d_80">
    <path d="M 405.892562 67.894438 
L 521.181818 141.173868 
L 636.471074 33.48 
" clip-path="url(#p5bdf44fe13)" style="fill: none; stroke: #0000ff; stroke-opacity: 0.3; stroke-linecap: square"/>
   </g>
   <g id="line2d_81">
    <path d="M 405.892562 60.045341 
L 521.181818 153.050549 
L 636.471074 33.48 
" clip-path="url(#p5bdf44fe13)" style="fill: none; stroke: #0000ff; stroke-opacity: 0.3; stroke-linecap: square"/>
   </g>
   <g id="line2d_82">
    <path d="M 405.892562 33.48 
L 521.181818 153.943055 
L 636.471074 39.623326 
" clip-path="url(#p5bdf44fe13)" style="fill: none; stroke: #0000ff; stroke-opacity: 0.3; stroke-linecap: square"/>
   </g>
   <g id="line2d_83">
    <path d="M 405.892562 83.193791 
L 521.181818 141.261029 
L 636.471074 38.439111 
" clip-path="url(#p5bdf44fe13)" style="fill: none; stroke: #ff0000; stroke-opacity: 0.5; stroke-width: 5; stroke-linecap: square"/>
   </g>
   <g id="line2d_84">
    <path d="M 405.892562 52.441767 
L 521.181818 137.426977 
L 636.471074 43.83037 
" clip-path="url(#p5bdf44fe13)" style="fill: none; stroke: #0000ff; stroke-opacity: 0.5; stroke-width: 5; stroke-linecap: square"/>
   </g>
   <g id="patch_9">
    <path d="M 394.363636 192.24 
L 394.363636 25.92 
" style="fill: none; stroke: #000000; stroke-width: 0.8; stroke-linejoin: miter; stroke-linecap: square"/>
   </g>
   <g id="patch_10">
    <path d="M 648 192.24 
L 648 25.92 
" style="fill: none; stroke: #000000; stroke-width: 0.8; stroke-linejoin: miter; stroke-linecap: square"/>
   </g>
   <g id="patch_11">
    <path d="M 394.363636 192.24 
L 648 192.24 
" style="fill: none; stroke: #000000; stroke-width: 0.8; stroke-linejoin: miter; stroke-linecap: square"/>
   </g>
   <g id="patch_12">
    <path d="M 394.363636 25.92 
L 648 25.92 
" style="fill: none; stroke: #000000; stroke-width: 0.8; stroke-linejoin: miter; stroke-linecap: square"/>
   </g>
   <g id="legend_2">
    <g id="patch_13">
     <path d="M 537.482812 187.24 
L 641 187.24 
Q 643 187.24 643 185.24 
L 643 156.88375 
Q 643 154.88375 641 154.88375 
L 537.482812 154.88375 
Q 535.482812 154.88375 535.482812 156.88375 
L 535.482812 185.24 
Q 535.482812 187.24 537.482812 187.24 
z
" style="fill: #ffffff; opacity: 0.8; stroke: #cccccc; stroke-linejoin: miter"/>
    </g>
    <g id="line2d_85">
     <path d="M 539.482812 162.982188 
L 549.482812 162.982188 
L 559.482812 162.982188 
" style="fill: none; stroke: #ff0000; stroke-opacity: 0.5; stroke-width: 5; stroke-linecap: square"/>
    </g>
    <g id="text_20">
     <!-- Group 1 mean -->
     <g transform="translate(567.482812 166.482188) scale(0.1 -0.1)">
      <use xlink:href="#DejaVuSans-47"/>
      <use xlink:href="#DejaVuSans-72" x="77.490234"/>
      <use xlink:href="#DejaVuSans-6f" x="116.353516"/>
      <use xlink:href="#DejaVuSans-75" x="177.535156"/>
      <use xlink:href="#DejaVuSans-70" x="240.914062"/>
      <use xlink:href="#DejaVuSans-20" x="304.390625"/>
      <use xlink:href="#DejaVuSans-31" x="336.177734"/>
      <use xlink:href="#DejaVuSans-20" x="399.800781"/>
      <use xlink:href="#DejaVuSans-6d" x="431.587891"/>
      <use xlink:href="#DejaVuSans-65" x="529"/>
      <use xlink:href="#DejaVuSans-61" x="590.523438"/>
      <use xlink:href="#DejaVuSans-6e" x="651.802734"/>
     </g>
    </g>
    <g id="line2d_86">
     <path d="M 539.482812 177.660313 
L 549.482812 177.660313 
L 559.482812 177.660313 
" style="fill: none; stroke: #0000ff; stroke-opacity: 0.5; stroke-width: 5; stroke-linecap: square"/>
    </g>
    <g id="text_21">
     <!-- Group 2 mean -->
     <g transform="translate(567.482812 181.160313) scale(0.1 -0.1)">
      <use xlink:href="#DejaVuSans-47"/>
      <use xlink:href="#DejaVuSans-72" x="77.490234"/>
      <use xlink:href="#DejaVuSans-6f" x="116.353516"/>
      <use xlink:href="#DejaVuSans-75" x="177.535156"/>
      <use xlink:href="#DejaVuSans-70" x="240.914062"/>
      <use xlink:href="#DejaVuSans-20" x="304.390625"/>
      <use xlink:href="#DejaVuSans-32" x="336.177734"/>
      <use xlink:href="#DejaVuSans-20" x="399.800781"/>
      <use xlink:href="#DejaVuSans-6d" x="431.587891"/>
      <use xlink:href="#DejaVuSans-65" x="529"/>
      <use xlink:href="#DejaVuSans-61" x="590.523438"/>
      <use xlink:href="#DejaVuSans-6e" x="651.802734"/>
     </g>
    </g>
   </g>
  </g>
 </g>
 <defs>
  <clipPath id="p7a9173b8a6">
   <rect x="90" y="25.92" width="253.636364" height="166.32"/>
  </clipPath>
  <clipPath id="p5bdf44fe13">
   <rect x="394.363636" y="25.92" width="253.636364" height="166.32"/>
  </clipPath>
 </defs>
</svg>
